G04*
G04 #@! TF.GenerationSoftware,Altium Limited,Altium Designer,19.1.9 (167)*
G04*
G04 Layer_Color=32768*
%FSLAX44Y44*%
%MOMM*%
G71*
G01*
G75*
%ADD30C,0.1270*%
D30*
X366999Y1065000D02*
Y1066001D01*
X363001D02*
X366999D01*
X363001Y1065000D02*
Y1066001D01*
Y1065000D02*
X366999D01*
X340999Y1046001D02*
X369001D01*
X340999D02*
Y1063999D01*
X369001D01*
Y1046001D02*
Y1063999D01*
X586999Y1065000D02*
Y1066001D01*
X583001D02*
X586999D01*
X583001Y1065000D02*
Y1066001D01*
Y1065000D02*
X586999D01*
X560999Y1046001D02*
X589001D01*
X560999D02*
Y1063999D01*
X589001D01*
Y1046001D02*
Y1063999D01*
X516999Y1065000D02*
Y1066001D01*
X513001D02*
X516999D01*
X513001Y1065000D02*
Y1066001D01*
Y1065000D02*
X516999D01*
X491000Y1046001D02*
X519001D01*
X491000D02*
Y1063999D01*
X519001D01*
Y1046001D02*
Y1063999D01*
X435498Y1065000D02*
Y1066001D01*
X431500D02*
X435498D01*
X431500Y1065000D02*
Y1066001D01*
Y1065000D02*
X435498D01*
X409498Y1046001D02*
X437499D01*
X409498D02*
Y1063999D01*
X437499D01*
Y1046001D02*
Y1063999D01*
X391999Y820000D02*
Y821001D01*
X388001D02*
X391999D01*
X388001Y820000D02*
Y821001D01*
Y820000D02*
X391999D01*
X365999Y801001D02*
X394000D01*
X365999D02*
Y818999D01*
X394000D01*
Y801001D02*
Y818999D01*
X550498Y820000D02*
Y821001D01*
X546500D02*
X550498D01*
X546500Y820000D02*
Y821001D01*
Y820000D02*
X550498D01*
X524498Y801001D02*
X552499D01*
X524498D02*
Y818999D01*
X552499D01*
Y801001D02*
Y818999D01*
X471999Y820000D02*
Y821001D01*
X468001D02*
X471999D01*
X468001Y820000D02*
Y821001D01*
Y820000D02*
X471999D01*
X445999Y801001D02*
X474000D01*
X445999D02*
Y818999D01*
X474000D01*
Y801001D02*
Y818999D01*
X550498Y960000D02*
Y961001D01*
X546500D02*
X550498D01*
X546500Y960000D02*
Y961001D01*
Y960000D02*
X550498D01*
X524498Y941001D02*
X552499D01*
X524498D02*
Y958999D01*
X552499D01*
Y941001D02*
Y958999D01*
X470498Y960000D02*
Y961001D01*
X466500D02*
X470498D01*
X466500Y960000D02*
Y961001D01*
Y960000D02*
X470498D01*
X444498Y941001D02*
X472499D01*
X444498D02*
Y958999D01*
X472499D01*
Y941001D02*
Y958999D01*
X391999Y960000D02*
Y961001D01*
X388001D02*
X391999D01*
X388001Y960000D02*
Y961001D01*
Y960000D02*
X391999D01*
X365999Y941001D02*
X394001D01*
X365999D02*
Y958999D01*
X394001D01*
Y941001D02*
Y958999D01*
X610498Y1000000D02*
Y1001001D01*
X606500D02*
X610498D01*
X606500Y1000000D02*
Y1001001D01*
Y1000000D02*
X610498D01*
X584498Y981001D02*
X612499D01*
X584498D02*
Y998999D01*
X612499D01*
Y981001D02*
Y998999D01*
X520498Y1000000D02*
Y1001001D01*
X516500D02*
X520498D01*
X516500Y1000000D02*
Y1001001D01*
Y1000000D02*
X520498D01*
X494498Y981001D02*
X522499D01*
X494498D02*
Y998999D01*
X522499D01*
Y981001D02*
Y998999D01*
X431999Y1000000D02*
Y1001001D01*
X428001D02*
X431999D01*
X428001Y1000000D02*
Y1001001D01*
Y1000000D02*
X431999D01*
X405999Y981001D02*
X434001D01*
X405999D02*
Y998999D01*
X434001D01*
Y981001D02*
Y998999D01*
X570498Y100000D02*
Y101001D01*
X566500D02*
X570498D01*
X566500Y100000D02*
Y101001D01*
Y100000D02*
X570498D01*
X544498Y81001D02*
X572499D01*
X544498D02*
Y98999D01*
X572499D01*
Y81001D02*
Y98999D01*
X470498Y100000D02*
Y101001D01*
X466500D02*
X470498D01*
X466500Y100000D02*
Y101001D01*
Y100000D02*
X470498D01*
X444498Y81001D02*
X472499D01*
X444498D02*
Y98999D01*
X472499D01*
Y81001D02*
Y98999D01*
X380498Y100000D02*
Y101001D01*
X376500D02*
X380498D01*
X376500Y100000D02*
Y101001D01*
Y100000D02*
X380498D01*
X354498Y81001D02*
X382499D01*
X354498D02*
Y98999D01*
X382499D01*
Y81001D02*
Y98999D01*
X600498Y160000D02*
Y161001D01*
X596500D02*
X600498D01*
X596500Y160000D02*
Y161001D01*
Y160000D02*
X600498D01*
X574498Y141001D02*
X602499D01*
X574498D02*
Y158999D01*
X602499D01*
Y141001D02*
Y158999D01*
X518001Y160000D02*
Y161001D01*
X514003D02*
X518001D01*
X514003Y160000D02*
Y161001D01*
Y160000D02*
X518001D01*
X492002Y141001D02*
X520003D01*
X492002D02*
Y158999D01*
X520003D01*
Y141001D02*
Y158999D01*
X428001Y160000D02*
Y161001D01*
X424003D02*
X428001D01*
X424003Y160000D02*
Y161001D01*
Y160000D02*
X428001D01*
X402002Y141001D02*
X430003D01*
X402002D02*
Y158999D01*
X430003D01*
Y141001D02*
Y158999D01*
X560000Y1730000D02*
Y1731001D01*
X556002D02*
X560000D01*
X556002Y1730000D02*
Y1731001D01*
Y1730000D02*
X560000D01*
X534001Y1711001D02*
X562001D01*
X534001D02*
Y1728999D01*
X562001D01*
Y1711001D02*
Y1728999D01*
X480000Y1730000D02*
Y1731001D01*
X476002D02*
X480000D01*
X476002Y1730000D02*
Y1731001D01*
Y1730000D02*
X480000D01*
X454001Y1711001D02*
X482001D01*
X454001D02*
Y1728999D01*
X482001D01*
Y1711001D02*
Y1728999D01*
X401501Y1730000D02*
Y1731001D01*
X397503D02*
X401501D01*
X397503Y1730000D02*
Y1731001D01*
Y1730000D02*
X401501D01*
X375502Y1711001D02*
X403503D01*
X375502D02*
Y1728999D01*
X403503D01*
Y1711001D02*
Y1728999D01*
X410000Y1890000D02*
Y1891001D01*
X406002D02*
X410000D01*
X406002Y1890000D02*
Y1891001D01*
Y1890000D02*
X410000D01*
X384001Y1871001D02*
X412001D01*
X384001D02*
Y1888999D01*
X412001D01*
Y1871001D02*
Y1888999D01*
X480000Y1890000D02*
Y1891001D01*
X476002D02*
X480000D01*
X476002Y1890000D02*
Y1891001D01*
Y1890000D02*
X480000D01*
X454001Y1871001D02*
X482001D01*
X454001D02*
Y1888999D01*
X482001D01*
Y1871001D02*
Y1888999D01*
X551999Y1890000D02*
Y1891001D01*
X548001D02*
X551999D01*
X548001Y1890000D02*
Y1891001D01*
Y1890000D02*
X551999D01*
X525999Y1871001D02*
X554000D01*
X525999D02*
Y1888999D01*
X554000D01*
Y1871001D02*
Y1888999D01*
X611999Y1930000D02*
Y1931001D01*
X608001D02*
X611999D01*
X608001Y1930000D02*
Y1931001D01*
Y1930000D02*
X611999D01*
X585999Y1911001D02*
X614001D01*
X585999D02*
Y1928999D01*
X614001D01*
Y1911001D02*
Y1928999D01*
X530000Y1930000D02*
Y1931001D01*
X526002D02*
X530000D01*
X526002Y1930000D02*
Y1931001D01*
Y1930000D02*
X530000D01*
X504001Y1911001D02*
X532001D01*
X504001D02*
Y1928999D01*
X532001D01*
Y1911001D02*
Y1928999D01*
X440000Y1930000D02*
Y1931001D01*
X436002D02*
X440000D01*
X436002Y1930000D02*
Y1931001D01*
Y1930000D02*
X440000D01*
X414001Y1911001D02*
X442001D01*
X414001D02*
Y1928999D01*
X442001D01*
Y1911001D02*
Y1928999D01*
X590498Y1770000D02*
Y1771001D01*
X586500D02*
X590498D01*
X586500Y1770000D02*
Y1771001D01*
Y1770000D02*
X590498D01*
X564498Y1751001D02*
X592499D01*
X564498D02*
Y1768999D01*
X592499D01*
Y1751001D02*
Y1768999D01*
X370498Y1770000D02*
Y1771001D01*
X366500D02*
X370498D01*
X366500Y1770000D02*
Y1771001D01*
Y1770000D02*
X370498D01*
X344498Y1751001D02*
X372499D01*
X344498D02*
Y1768999D01*
X372499D01*
Y1751001D02*
Y1768999D01*
X440498Y1770000D02*
Y1771001D01*
X436500D02*
X440498D01*
X436500Y1770000D02*
Y1771001D01*
Y1770000D02*
X440498D01*
X414498Y1751001D02*
X442499D01*
X414498D02*
Y1768999D01*
X442499D01*
Y1751001D02*
Y1768999D01*
X510498Y1770000D02*
Y1771001D01*
X506500D02*
X510498D01*
X506500Y1770000D02*
Y1771001D01*
Y1770000D02*
X510498D01*
X484498Y1751001D02*
X512499D01*
X484498D02*
Y1768999D01*
X512499D01*
Y1751001D02*
Y1768999D01*
X354001Y141001D02*
Y158999D01*
X325999D02*
X354001D01*
X325999Y141001D02*
Y158999D01*
Y141001D02*
X354001D01*
X348001Y160000D02*
X351999D01*
X348001D02*
Y161001D01*
X351999D01*
Y160000D02*
Y161001D01*
X354001Y981001D02*
Y998999D01*
X325999D02*
X354001D01*
X325999Y981001D02*
Y998999D01*
Y981001D02*
X354001D01*
X348001Y1000000D02*
X351999D01*
X348001D02*
Y1001001D01*
X351999D01*
Y1000000D02*
Y1001001D01*
X362001Y1911001D02*
Y1928999D01*
X334001D02*
X362001D01*
X334001Y1911001D02*
Y1928999D01*
Y1911001D02*
X362001D01*
X356002Y1930000D02*
X360000D01*
X356002D02*
Y1931001D01*
X360000D01*
Y1930000D02*
Y1931001D01*
M02*
