G04*
G04 #@! TF.GenerationSoftware,Altium Limited,Altium Designer,19.1.9 (167)*
G04*
G04 Layer_Color=8421504*
%FSLAX44Y44*%
%MOMM*%
G71*
G01*
G75*
%ADD13R,1.4001X1.4001*%
%ADD14R,2.7000X1.4001*%
%ADD15C,1.5240*%
%ADD16R,5.0000X1.0000*%
%ADD17R,1.5240X1.5240*%
%ADD18R,1.2500X1.8000*%
%ADD19R,0.6000X1.0000*%
%ADD20C,1.0160*%
D13*
X336501Y1055000D02*
D03*
X556501D02*
D03*
X486501D02*
D03*
X405000D02*
D03*
X361501Y810000D02*
D03*
X520000D02*
D03*
X441501D02*
D03*
X520000Y950000D02*
D03*
X440000D02*
D03*
X361501D02*
D03*
X580000Y990000D02*
D03*
X490000D02*
D03*
X401501D02*
D03*
X540000Y90000D02*
D03*
X440000D02*
D03*
X350000D02*
D03*
X570000Y150000D02*
D03*
X487503D02*
D03*
X397503D02*
D03*
X529502Y1720000D02*
D03*
X449502D02*
D03*
X371003D02*
D03*
X379502Y1880000D02*
D03*
X449502D02*
D03*
X521501Y1880000D02*
D03*
X581501Y1920000D02*
D03*
X499502D02*
D03*
X409502D02*
D03*
X560000Y1760000D02*
D03*
X340000Y1760000D02*
D03*
X410000Y1760000D02*
D03*
X480000Y1760000D02*
D03*
X321501Y150000D02*
D03*
Y990000D02*
D03*
X329502Y1920000D02*
D03*
D14*
X366999Y1055000D02*
D03*
X586999D02*
D03*
X516999D02*
D03*
X435498D02*
D03*
X391999Y810000D02*
D03*
X550498D02*
D03*
X471999D02*
D03*
X550498Y950000D02*
D03*
X470498D02*
D03*
X391999D02*
D03*
X610498Y990000D02*
D03*
X520498D02*
D03*
X431999D02*
D03*
X570498Y90000D02*
D03*
X470498D02*
D03*
X380498D02*
D03*
X600498Y150000D02*
D03*
X518001D02*
D03*
X428001D02*
D03*
X560000Y1720000D02*
D03*
X480000D02*
D03*
X401501D02*
D03*
X410000Y1880000D02*
D03*
X480000D02*
D03*
X551999Y1880000D02*
D03*
X611999Y1920000D02*
D03*
X530000D02*
D03*
X440000D02*
D03*
X590498Y1760000D02*
D03*
X370498Y1760000D02*
D03*
X440498Y1760000D02*
D03*
X510498Y1760000D02*
D03*
X351999Y150000D02*
D03*
Y990000D02*
D03*
X360000Y1920000D02*
D03*
D15*
X60000Y110000D02*
D03*
Y990000D02*
D03*
X240000Y1520000D02*
D03*
X150000D02*
D03*
X60000D02*
D03*
X900000Y1680000D02*
D03*
X810000D02*
D03*
X719440Y1679340D02*
D03*
X900000Y2040000D02*
D03*
X810000D02*
D03*
X720000D02*
D03*
X240000Y1680000D02*
D03*
X150000D02*
D03*
X240000Y2040000D02*
D03*
X60000Y1680000D02*
D03*
X60000Y470000D02*
D03*
X390000Y1170000D02*
D03*
X390000Y1530000D02*
D03*
X60000Y630000D02*
D03*
X50000Y1150000D02*
D03*
X150000Y110000D02*
D03*
Y470000D02*
D03*
X480000Y1170000D02*
D03*
Y1530000D02*
D03*
X150000Y630000D02*
D03*
X150000Y990000D02*
D03*
X140000Y1150000D02*
D03*
X240000Y110000D02*
D03*
Y470000D02*
D03*
X570000Y1170000D02*
D03*
X570000Y1530000D02*
D03*
X240000Y630000D02*
D03*
X240000Y990000D02*
D03*
X230000Y1150000D02*
D03*
X710000Y110000D02*
D03*
Y470000D02*
D03*
X390000Y290000D02*
D03*
Y660000D02*
D03*
X710000Y630000D02*
D03*
X710000Y990000D02*
D03*
X710000Y1150000D02*
D03*
X720000Y1520000D02*
D03*
X800000Y110000D02*
D03*
Y470000D02*
D03*
X480000Y290000D02*
D03*
X480000Y660000D02*
D03*
X800000Y630000D02*
D03*
X800000Y990000D02*
D03*
X800000Y1150000D02*
D03*
X810000Y1520000D02*
D03*
X890000Y110000D02*
D03*
Y470000D02*
D03*
X570000Y290000D02*
D03*
Y660000D02*
D03*
X890000Y630000D02*
D03*
X890000Y990000D02*
D03*
X890000Y1150000D02*
D03*
X900000Y1520000D02*
D03*
D16*
X70160Y50661D02*
D03*
X49840Y1049340D02*
D03*
X229840Y1579339D02*
D03*
X139840D02*
D03*
X49840D02*
D03*
X910160Y1620661D02*
D03*
X820160D02*
D03*
X729600Y1620000D02*
D03*
X889840Y2099339D02*
D03*
X799840D02*
D03*
X709840D02*
D03*
X250160Y1620661D02*
D03*
X160160D02*
D03*
X229840Y2099339D02*
D03*
X139840D02*
D03*
X49840D02*
D03*
X70160Y1620661D02*
D03*
X49840Y529339D02*
D03*
X400160Y1110660D02*
D03*
X379840Y1589339D02*
D03*
X70160Y570661D02*
D03*
X60160Y1090660D02*
D03*
X160160Y50661D02*
D03*
X139840Y529339D02*
D03*
X490160Y1110660D02*
D03*
X469840Y1589339D02*
D03*
X160160Y570661D02*
D03*
X139840Y1049340D02*
D03*
X150160Y1090660D02*
D03*
X250160Y50661D02*
D03*
X229840Y529339D02*
D03*
X580160Y1110660D02*
D03*
X559840Y1589339D02*
D03*
X250160Y570661D02*
D03*
X229840Y1049340D02*
D03*
X240160Y1090660D02*
D03*
X720160Y50661D02*
D03*
X699840Y529339D02*
D03*
X400160Y230660D02*
D03*
X379840Y719339D02*
D03*
X720160Y570661D02*
D03*
X699840Y1049340D02*
D03*
X720160Y1090660D02*
D03*
X709840Y1579339D02*
D03*
X810160Y50661D02*
D03*
X789840Y529339D02*
D03*
X490160Y230660D02*
D03*
X469840Y719339D02*
D03*
X810160Y570661D02*
D03*
X789840Y1049340D02*
D03*
X810160Y1090660D02*
D03*
X799840Y1579339D02*
D03*
X900160Y50661D02*
D03*
X879840Y529339D02*
D03*
X580160Y230660D02*
D03*
X559840Y719339D02*
D03*
X900160Y570661D02*
D03*
X879840Y1049340D02*
D03*
X900160Y1090660D02*
D03*
X889840Y1579339D02*
D03*
D17*
X150000Y2040000D02*
D03*
X60000D02*
D03*
D18*
X311450Y2099430D02*
D03*
X408550D02*
D03*
D19*
X337500Y2047530D02*
D03*
X352500D02*
D03*
X367500D02*
D03*
X382500D02*
D03*
D20*
X520000Y1850000D02*
D03*
X410000Y1785000D02*
D03*
X435000Y1855000D02*
D03*
X380000Y1860000D02*
D03*
X480000Y1790000D02*
D03*
X350000Y60000D02*
D03*
X560000Y1790000D02*
D03*
X400000Y1085000D02*
D03*
X390000Y1020000D02*
D03*
X410000Y1940000D02*
D03*
X390000Y170000D02*
D03*
X480000D02*
D03*
X485000Y1080000D02*
D03*
X480000Y1020000D02*
D03*
X500000Y1940000D02*
D03*
X570000Y180000D02*
D03*
X555000Y1080000D02*
D03*
X570000Y1020000D02*
D03*
X580000Y1940000D02*
D03*
X350000Y790000D02*
D03*
X370000Y920000D02*
D03*
X369502Y1690000D02*
D03*
X440000Y55000D02*
D03*
X430000Y790000D02*
D03*
X530000Y920000D02*
D03*
X449502Y1690000D02*
D03*
X540000Y60000D02*
D03*
X510000Y790000D02*
D03*
X450000Y920000D02*
D03*
X530000Y1690000D02*
D03*
M02*
