M48
;Layer_Color=9474304
;FILE_FORMAT=4:4
METRIC,LZ
;TYPE=PLATED
T1F00S00C0.3000
%
T01
X000225Y00025
X00045Y0007
X0017
X00265Y00065
X003675Y00135
X00590418Y00085
X0068Y0005
X00755Y00075
X0078Y0006
X00885Y00065
X0088Y0051
X00785
X00705
X0059875Y0025125
X00505Y0025
X00414339Y00250661
X002975Y001475
X00265Y0053
X00175
X00038026Y00511974
X0007Y00585
X00175
X0026
X00414339Y00719339
X00505Y0072
X0036Y0083
X0035Y0093
X002975Y0092
X0046Y0093
X0054
X005975Y007175
X007Y0059
X0079Y00585
X0088
X0086Y0103
X00765
X00685
X00705Y01105
X0079
X0091
X0059Y01125
X0061Y01055
X0058Y0095
X005Y01125
X0041
X0026Y01105
X00265Y0105
X0029Y010575
X00305Y0101
X00285Y009675
X003275Y00955
X00195Y010075
X00175Y01045
X00165Y01105
X00085
X0007Y0103
X000375Y0103
X0008Y01565
X0017
X0026
X00298512Y016
X00405Y0157
X00485Y01575
X0046Y017
X0054Y01695
X00645Y0166
X00695Y01565
X00775Y0156
X00785Y01625
X00855Y016
X00895Y01565
X0058Y01575
X00563998Y0174
X0059Y0188
X0056Y0194
X0067Y01845
X0076Y019
X00775Y0208
X0086984Y02078728
X0048Y0194
X0039
X00385Y0202
X00335Y02025
X0026Y0208
X0018Y0209
X0019Y0196
X0030996Y0191496
X0033Y01795
Y0174
X003925Y017475
X0044Y0174
X0047Y0178
X0045Y0186
X0053Y0186
X00105Y01935
X0009Y0208
M30
